<svg width="146" height="56" viewBox="0 0 146 56" fill="none" xmlns="http://www.w3.org/2000/svg">
<rect x="0.5" y="0.5" width="145" height="55" rx="15.5" stroke="#232323"/>
<g clip-path="url(#clip0_332_6973)">
<path d="M82.3502 34.4829C81.9997 35.2938 81.5849 36.0402 81.1043 36.7264C80.4492 37.6619 79.9129 38.3094 79.4995 38.669C78.8587 39.2593 78.1721 39.5615 77.4369 39.5787C76.9091 39.5787 76.2726 39.4283 75.5317 39.1232C74.7883 38.8194 74.1052 38.669 73.4806 38.669C72.8255 38.669 72.1229 38.8194 71.3714 39.1232C70.6187 39.4283 70.0124 39.5873 69.5488 39.6031C68.8438 39.6332 68.1411 39.3223 67.4397 38.669C66.992 38.2779 66.432 37.6075 65.7611 36.6576C65.0414 35.6433 64.4497 34.4672 63.9861 33.1262C63.4896 31.6779 63.2407 30.2753 63.2407 28.9175C63.2407 27.3621 63.5763 26.0206 64.2484 24.8964C64.7766 23.9934 65.4794 23.2812 66.3589 22.7582C67.2384 22.2353 68.1887 21.9689 69.2121 21.9518C69.7721 21.9518 70.5065 22.1253 71.419 22.4663C72.329 22.8084 72.9133 22.9819 73.1695 22.9819C73.361 22.9819 74.0101 22.779 75.1105 22.3746C76.151 21.9995 77.0293 21.8442 77.7487 21.9054C79.6983 22.063 81.163 22.8327 82.137 24.2195C80.3935 25.2776 79.531 26.7597 79.5481 28.6609C79.5639 30.1418 80.1002 31.3741 81.1544 32.3526C81.6321 32.8068 82.1657 33.1577 82.7592 33.407C82.6305 33.7809 82.4946 34.1391 82.3502 34.4829ZM77.8789 16.8603C77.8789 18.021 77.4555 19.1048 76.6116 20.1079C75.5932 21.3004 74.3614 21.9895 73.0256 21.8808C73.0086 21.7415 72.9987 21.595 72.9987 21.441C72.9987 20.3267 73.483 19.1342 74.3431 18.1591C74.7725 17.6654 75.3186 17.255 75.9808 16.9275C76.6417 16.6049 77.2667 16.4265 77.8546 16.396C77.8717 16.5512 77.8789 16.7063 77.8789 16.8603V16.8603Z" fill="#FBFBFB"/>
</g>
<defs>
<clipPath id="clip0_332_6973">
<rect width="19.5185" height="23.2091" fill="white" transform="translate(63.2407 16.3955)"/>
</clipPath>
</defs>
</svg>
