<svg width="154" height="56" viewBox="0 0 154 56" fill="none" xmlns="http://www.w3.org/2000/svg">
<rect x="0.5" y="0.5" width="153" height="55" rx="15.5" stroke="#232323"/>
<g clip-path="url(#clip0_332_6972)">
<path d="M70.5467 30.4184L69.7397 33.4308L66.7904 33.4931C65.909 31.8583 65.4091 29.9879 65.4091 28.0002C65.4091 26.0782 65.8765 24.2656 66.7051 22.6697H66.7057L69.3314 23.1511L70.4816 25.761C70.2409 26.4628 70.1097 27.2163 70.1097 28.0002C70.1098 28.8511 70.2639 29.6663 70.5467 30.4184Z" fill="#FBBB00"/>
<path d="M88.3883 25.8345C88.5214 26.5356 88.5908 27.2597 88.5908 27.9998C88.5908 28.8296 88.5036 29.6391 88.3374 30.4199C87.7731 33.0769 86.2988 35.397 84.2564 37.0388L84.2557 37.0382L80.9485 36.8694L80.4804 33.9475C81.8357 33.1527 82.8948 31.9089 83.4527 30.4199H77.2547V25.8345H83.5431H88.3883Z" fill="#518EF8"/>
<path d="M84.2553 37.0386L84.2559 37.0393C82.2696 38.6359 79.7463 39.5912 76.9995 39.5912C72.5854 39.5912 68.7477 37.124 66.7899 33.4932L70.5462 30.4185C71.525 33.0308 74.0451 34.8905 76.9995 34.8905C78.2694 34.8905 79.4591 34.5472 80.4799 33.9479L84.2553 37.0386Z" fill="#28B446"/>
<path d="M84.3983 19.0776L80.6434 22.1518C79.5868 21.4913 78.3379 21.1098 76.9999 21.1098C73.9786 21.1098 71.4114 23.0548 70.4816 25.7609L66.7056 22.6695H66.705C68.6341 18.9503 72.5202 16.4092 76.9999 16.4092C79.8123 16.4092 82.3909 17.411 84.3983 19.0776Z" fill="#F14336"/>
</g>
<defs>
<clipPath id="clip0_332_6972">
<rect width="23.1818" height="23.1818" fill="white" transform="translate(65.4091 16.4092)"/>
</clipPath>
</defs>
</svg>
