<svg width="326" height="20" viewBox="0 0 326 20" fill="none" xmlns="http://www.w3.org/2000/svg">
<line y1="9.5" x2="100" y2="9.5" stroke="#808080"/>
<path d="M115.824 9.90909C115.824 10.983 115.63 11.911 115.242 12.6932C114.854 13.4754 114.322 14.0786 113.646 14.5028C112.97 14.9271 112.198 15.1392 111.33 15.1392C110.461 15.1392 109.689 14.9271 109.013 14.5028C108.337 14.0786 107.805 13.4754 107.417 12.6932C107.029 11.911 106.835 10.983 106.835 9.90909C106.835 8.83523 107.029 7.9072 107.417 7.125C107.805 6.3428 108.337 5.73958 109.013 5.31534C109.689 4.8911 110.461 4.67898 111.33 4.67898C112.198 4.67898 112.97 4.8911 113.646 5.31534C114.322 5.73958 114.854 6.3428 115.242 7.125C115.63 7.9072 115.824 8.83523 115.824 9.90909ZM114.631 9.90909C114.631 9.02746 114.483 8.28338 114.188 7.67685C113.897 7.07031 113.5 6.61127 113 6.29972C112.503 5.98816 111.946 5.83239 111.33 5.83239C110.713 5.83239 110.155 5.98816 109.654 6.29972C109.157 6.61127 108.761 7.07031 108.466 7.67685C108.174 8.28338 108.028 9.02746 108.028 9.90909C108.028 10.7907 108.174 11.5348 108.466 12.1413C108.761 12.7479 109.157 13.2069 109.654 13.5185C110.155 13.83 110.713 13.9858 111.33 13.9858C111.946 13.9858 112.503 13.83 113 13.5185C113.5 13.2069 113.897 12.7479 114.188 12.1413C114.483 11.5348 114.631 10.7907 114.631 9.90909ZM117.528 15V7.36364H118.661V8.51705H118.741C118.88 8.1392 119.132 7.83262 119.497 7.5973C119.861 7.36198 120.272 7.24432 120.73 7.24432C120.816 7.24432 120.924 7.24597 121.053 7.24929C121.182 7.2526 121.28 7.25758 121.346 7.2642V8.45739C121.306 8.44744 121.215 8.43253 121.073 8.41264C120.933 8.38944 120.786 8.37784 120.63 8.37784C120.259 8.37784 119.928 8.45573 119.636 8.61151C119.348 8.76397 119.119 8.97609 118.95 9.24787C118.784 9.51634 118.701 9.82292 118.701 10.1676V15H117.528ZM129.357 15.1591C128.641 15.1591 128.024 14.9901 127.507 14.652C126.99 14.3139 126.592 13.8482 126.314 13.255C126.036 12.6617 125.896 11.9839 125.896 11.2216C125.896 10.446 126.039 9.7616 126.324 9.16832C126.612 8.57173 127.013 8.10606 127.527 7.77131C128.044 7.43324 128.647 7.2642 129.337 7.2642C129.874 7.2642 130.358 7.36364 130.789 7.5625C131.219 7.76136 131.572 8.03977 131.847 8.39773C132.123 8.75568 132.293 9.1733 132.36 9.65057H131.186C131.097 9.30256 130.898 8.99432 130.59 8.72585C130.285 8.45407 129.874 8.31818 129.357 8.31818C128.899 8.31818 128.498 8.4375 128.154 8.67614C127.812 8.91146 127.545 9.24455 127.353 9.67543C127.164 10.103 127.07 10.6051 127.07 11.1818C127.07 11.7718 127.163 12.2855 127.348 12.723C127.537 13.1605 127.802 13.5002 128.144 13.7422C128.488 13.9841 128.893 14.1051 129.357 14.1051C129.662 14.1051 129.938 14.0521 130.187 13.946C130.436 13.84 130.646 13.6875 130.818 13.4886C130.991 13.2898 131.113 13.0511 131.186 12.7727H132.36C132.293 13.2235 132.129 13.6295 131.867 13.9908C131.609 14.3487 131.266 14.6338 130.838 14.8459C130.414 15.0547 129.92 15.1591 129.357 15.1591ZM136.967 15.1591C136.278 15.1591 135.673 14.995 135.152 14.6669C134.635 14.3388 134.231 13.8797 133.939 13.2898C133.651 12.6998 133.507 12.0104 133.507 11.2216C133.507 10.4261 133.651 9.73177 133.939 9.13849C134.231 8.54522 134.635 8.08452 135.152 7.75639C135.673 7.42827 136.278 7.2642 136.967 7.2642C137.656 7.2642 138.26 7.42827 138.777 7.75639C139.297 8.08452 139.701 8.54522 139.99 9.13849C140.281 9.73177 140.427 10.4261 140.427 11.2216C140.427 12.0104 140.281 12.6998 139.99 13.2898C139.701 13.8797 139.297 14.3388 138.777 14.6669C138.26 14.995 137.656 15.1591 136.967 15.1591ZM136.967 14.1051C137.491 14.1051 137.922 13.9709 138.26 13.7024C138.598 13.4339 138.848 13.081 139.01 12.6435C139.173 12.206 139.254 11.732 139.254 11.2216C139.254 10.7112 139.173 10.2356 139.01 9.79474C138.848 9.35393 138.598 8.99763 138.26 8.72585C137.922 8.45407 137.491 8.31818 136.967 8.31818C136.443 8.31818 136.012 8.45407 135.674 8.72585C135.336 8.99763 135.086 9.35393 134.924 9.79474C134.761 10.2356 134.68 10.7112 134.68 11.2216C134.68 11.732 134.761 12.206 134.924 12.6435C135.086 13.081 135.336 13.4339 135.674 13.7024C136.012 13.9709 136.443 14.1051 136.967 14.1051ZM143.182 10.4062V15H142.008V7.36364H143.142V8.55682H143.241C143.42 8.16903 143.692 7.85748 144.057 7.62216C144.421 7.38352 144.892 7.2642 145.468 7.2642C145.986 7.2642 146.438 7.37027 146.826 7.58239C147.213 7.79119 147.515 8.10938 147.731 8.53693C147.946 8.96117 148.054 9.49811 148.054 10.1477V15H146.88V10.2273C146.88 9.62737 146.725 9.16004 146.413 8.82528C146.102 8.48722 145.674 8.31818 145.13 8.31818C144.756 8.31818 144.421 8.39938 144.126 8.56179C143.834 8.72419 143.604 8.96117 143.435 9.27273C143.266 9.58428 143.182 9.96212 143.182 10.4062ZM153.309 7.36364V8.35795H149.351V7.36364H153.309ZM150.505 5.53409H151.678V12.8125C151.678 13.1439 151.726 13.3925 151.822 13.5582C151.922 13.7206 152.048 13.83 152.2 13.8864C152.356 13.9394 152.52 13.9659 152.692 13.9659C152.822 13.9659 152.928 13.9593 153.01 13.946C153.093 13.9295 153.16 13.9162 153.209 13.9062L153.448 14.9602C153.368 14.9901 153.257 15.0199 153.115 15.0497C152.972 15.0829 152.792 15.0994 152.573 15.0994C152.241 15.0994 151.917 15.0282 151.598 14.8857C151.284 14.7431 151.022 14.526 150.813 14.2344C150.607 13.9427 150.505 13.5748 150.505 13.1307V5.53409ZM154.864 15V7.36364H156.037V15H154.864ZM155.46 6.09091C155.232 6.09091 155.034 6.01302 154.869 5.85724C154.706 5.70147 154.625 5.5142 154.625 5.29545C154.625 5.0767 154.706 4.88944 154.869 4.73366C155.034 4.57789 155.232 4.5 155.46 4.5C155.689 4.5 155.884 4.57789 156.047 4.73366C156.213 4.88944 156.295 5.0767 156.295 5.29545C156.295 5.5142 156.213 5.70147 156.047 5.85724C155.884 6.01302 155.689 6.09091 155.46 6.09091ZM159.149 10.4062V15H157.976V7.36364H159.109V8.55682H159.209C159.388 8.16903 159.66 7.85748 160.024 7.62216C160.389 7.38352 160.859 7.2642 161.436 7.2642C161.953 7.2642 162.406 7.37027 162.793 7.58239C163.181 7.79119 163.483 8.10938 163.698 8.53693C163.914 8.96117 164.021 9.49811 164.021 10.1477V15H162.848V10.2273C162.848 9.62737 162.692 9.16004 162.381 8.82528C162.069 8.48722 161.642 8.31818 161.098 8.31818C160.724 8.31818 160.389 8.39938 160.094 8.56179C159.802 8.72419 159.572 8.96117 159.403 9.27273C159.234 9.58428 159.149 9.96212 159.149 10.4062ZM170.768 11.8778V7.36364H171.941V15H170.768V13.7074H170.688C170.509 14.0952 170.231 14.425 169.853 14.6967C169.475 14.9652 168.998 15.0994 168.421 15.0994C167.944 15.0994 167.52 14.995 167.149 14.7862C166.777 14.5741 166.486 14.2559 166.274 13.8317C166.061 13.4041 165.955 12.8655 165.955 12.2159V7.36364H167.129V12.1364C167.129 12.6932 167.284 13.1373 167.596 13.4688C167.911 13.8002 168.312 13.9659 168.799 13.9659C169.091 13.9659 169.387 13.8913 169.689 13.7422C169.994 13.593 170.249 13.3643 170.455 13.0561C170.663 12.7479 170.768 12.3551 170.768 11.8778ZM177.082 15.1591C176.346 15.1591 175.711 14.9967 175.178 14.6719C174.647 14.3438 174.238 13.8864 173.95 13.2997C173.665 12.7098 173.522 12.0237 173.522 11.2415C173.522 10.4593 173.665 9.76989 173.95 9.1733C174.238 8.57339 174.639 8.10606 175.153 7.77131C175.67 7.43324 176.273 7.2642 176.963 7.2642C177.36 7.2642 177.753 7.33049 178.141 7.46307C178.529 7.59564 178.882 7.81108 179.2 8.10938C179.518 8.40436 179.771 8.79545 179.96 9.28267C180.149 9.76989 180.244 10.3698 180.244 11.0824V11.5795H174.357V10.5653H179.051C179.051 10.1345 178.964 9.75 178.792 9.41193C178.623 9.07386 178.381 8.80705 178.066 8.61151C177.755 8.41596 177.387 8.31818 176.963 8.31818C176.495 8.31818 176.091 8.43419 175.749 8.66619C175.411 8.89489 175.151 9.19318 174.969 9.56108C174.787 9.92898 174.695 10.3234 174.695 10.7443V11.4205C174.695 11.9972 174.795 12.486 174.994 12.8871C175.196 13.2848 175.476 13.5881 175.834 13.7969C176.192 14.0024 176.608 14.1051 177.082 14.1051C177.39 14.1051 177.668 14.062 177.917 13.9759C178.169 13.8864 178.386 13.7538 178.568 13.5781C178.751 13.3991 178.891 13.1771 178.991 12.9119L180.124 13.2301C180.005 13.6146 179.805 13.9527 179.523 14.2443C179.241 14.5327 178.893 14.758 178.479 14.9205C178.065 15.0795 177.599 15.1591 177.082 15.1591ZM187.276 15L184.949 7.36364H186.182L187.833 13.2102H187.913L189.543 7.36364H190.796L192.407 13.1903H192.486L194.137 7.36364H195.37L193.043 15H191.89L190.219 9.13352H190.1L188.43 15H187.276ZM196.711 15V7.36364H197.884V15H196.711ZM197.308 6.09091C197.079 6.09091 196.882 6.01302 196.716 5.85724C196.554 5.70147 196.472 5.5142 196.472 5.29545C196.472 5.0767 196.554 4.88944 196.716 4.73366C196.882 4.57789 197.079 4.5 197.308 4.5C197.536 4.5 197.732 4.57789 197.894 4.73366C198.06 4.88944 198.143 5.0767 198.143 5.29545C198.143 5.5142 198.06 5.70147 197.894 5.85724C197.732 6.01302 197.536 6.09091 197.308 6.09091ZM203.144 7.36364V8.35795H199.187V7.36364H203.144ZM200.34 5.53409H201.514V12.8125C201.514 13.1439 201.562 13.3925 201.658 13.5582C201.757 13.7206 201.883 13.83 202.036 13.8864C202.191 13.9394 202.356 13.9659 202.528 13.9659C202.657 13.9659 202.763 13.9593 202.846 13.946C202.929 13.9295 202.995 13.9162 203.045 13.9062L203.284 14.9602C203.204 14.9901 203.093 15.0199 202.95 15.0497C202.808 15.0829 202.627 15.0994 202.409 15.0994C202.077 15.0994 201.752 15.0282 201.434 14.8857C201.119 14.7431 200.857 14.526 200.649 14.2344C200.443 13.9427 200.34 13.5748 200.34 13.1307V5.53409ZM205.873 10.4062V15H204.699V4.81818H205.873V8.55682H205.972C206.151 8.16241 206.419 7.84919 206.777 7.61719C207.139 7.38187 207.619 7.2642 208.219 7.2642C208.739 7.2642 209.195 7.36861 209.586 7.57741C209.977 7.78291 210.281 8.09943 210.496 8.52699C210.715 8.95123 210.824 9.49148 210.824 10.1477V15H209.651V10.2273C209.651 9.62074 209.494 9.15175 209.179 8.82031C208.867 8.48556 208.435 8.31818 207.881 8.31818C207.497 8.31818 207.152 8.39938 206.847 8.56179C206.545 8.72419 206.307 8.96117 206.131 9.27273C205.959 9.58428 205.873 9.96212 205.873 10.4062Z" fill="#FBFBFB"/>
<line x1="218" y1="9.5" x2="326.005" y2="9.5" stroke="#808080"/>
</svg>
