<svg width="103" height="41" viewBox="0 0 103 41" fill="none" xmlns="http://www.w3.org/2000/svg">
<path d="M12.7231 32.6385C9.96989 32.6385 7.64775 32.2074 5.75667 31.3453C3.86559 30.4554 2.43338 29.2596 1.46003 27.7578C0.486682 26.2283 7.62939e-06 24.4763 7.62939e-06 22.5018H6.63269C6.63269 23.2804 6.84126 24.0035 7.25841 24.6709C7.70337 25.3384 8.37081 25.8807 9.26073 26.2978C10.1507 26.6872 11.3048 26.8818 12.7231 26.8818C14.0023 26.8818 15.073 26.715 15.9351 26.3812C16.7972 26.0475 17.4508 25.5887 17.8957 25.0047C18.3407 24.3928 18.5632 23.6976 18.5632 22.9189C18.5632 21.9456 18.146 21.1808 17.3117 20.6246C16.4774 20.0406 15.1286 19.6651 13.2654 19.4983L10.971 19.2897C7.93976 19.0394 5.52029 18.0939 3.71264 16.4531C1.90499 14.8123 1.00117 12.6431 1.00117 9.94555C1.00117 7.99886 1.46003 6.31635 2.37776 4.89804C3.3233 3.47973 4.63037 2.39514 6.29897 1.64427C7.96757 0.865595 9.94207 0.476257 12.2225 0.476257C14.6142 0.476257 16.6582 0.893407 18.3546 1.72771C20.0788 2.5342 21.3998 3.68831 22.3175 5.19005C23.2352 6.66398 23.6941 8.4021 23.6941 10.4044H17.0197C17.0197 9.65355 16.8389 8.9722 16.4774 8.36038C16.1159 7.72075 15.5736 7.20627 14.8505 6.81693C14.1553 6.42759 13.2793 6.23292 12.2225 6.23292C11.2213 6.23292 10.3731 6.39978 9.67788 6.7335C9.01044 7.06722 8.50986 7.52609 8.17614 8.1101C7.84242 8.6663 7.67556 9.27812 7.67556 9.94555C7.67556 10.8077 7.98147 11.5585 8.59329 12.1982C9.20511 12.8378 10.2063 13.2132 11.5968 13.3245L13.9328 13.533C16.1576 13.7277 18.1182 14.2144 19.8146 14.9931C21.511 15.7439 22.832 16.7868 23.7775 18.1217C24.7509 19.4288 25.2376 21.0278 25.2376 22.9189C25.2376 24.8656 24.7231 26.5759 23.6941 28.0498C22.693 29.496 21.2607 30.6223 19.3975 31.4288C17.5342 32.2352 15.3094 32.6385 12.7231 32.6385Z" fill="#FBFBFB"/>
<path d="M62.7116 32.6385C60.7093 32.6385 58.9295 32.3326 57.3721 31.7208C55.8147 31.0811 54.4938 30.219 53.4092 29.1344C52.3524 28.0498 51.5459 26.8123 50.9897 25.4218C50.4335 24.0035 50.1554 22.5157 50.1554 20.9583V19.9989C50.1554 18.4137 50.4335 16.912 50.9897 15.4936C51.5737 14.0475 52.408 12.7822 53.4926 11.6976C54.605 10.613 55.9399 9.76479 57.4972 9.15297C59.0546 8.51334 60.7927 8.19352 62.7116 8.19352C64.6861 8.19352 66.4382 8.51334 67.9677 9.15297C69.5251 9.76479 70.846 10.613 71.9306 11.6976C73.0152 12.7822 73.8495 14.0475 74.4335 15.4936C75.0175 16.912 75.3095 18.4137 75.3095 19.9989V20.9583C75.3095 22.5157 75.0314 24.0035 74.4752 25.4218C73.919 26.8123 73.0986 28.0498 72.0141 29.1344C70.9573 30.219 69.6502 31.0811 68.0928 31.7208C66.5355 32.3326 64.7417 32.6385 62.7116 32.6385ZM62.7116 27.007C64.0187 27.007 65.1033 26.7289 65.9654 26.1727C66.8275 25.6165 67.481 24.8378 67.926 23.8366C68.3988 22.8355 68.6351 21.7231 68.6351 20.4994C68.6351 19.1924 68.3988 18.0522 67.926 17.0788C67.4532 16.0777 66.7719 15.2851 65.882 14.7011C65.0198 14.1171 63.9631 13.825 62.7116 13.825C61.488 13.825 60.4312 14.1171 59.5413 14.7011C58.6514 15.2851 57.97 16.0777 57.4972 17.0788C57.0523 18.0522 56.8298 19.1924 56.8298 20.4994C56.8298 21.7231 57.0523 22.8355 57.4972 23.8366C57.9422 24.8378 58.6096 25.6165 59.4996 26.1727C60.3895 26.7289 61.4602 27.007 62.7116 27.007Z" fill="#FBFBFB"/>
<path d="M77.3604 40.1889V8.98611H82.6582V18.8726L81.9491 18.8308C82.0603 16.5504 82.5331 14.6315 83.3674 13.0742C84.2017 11.489 85.328 10.3071 86.7463 9.52841C88.1646 8.72192 89.7637 8.31867 91.5435 8.31867C93.1287 8.31867 94.5609 8.61067 95.8401 9.19468C97.1472 9.77869 98.2596 10.5991 99.1773 11.6559C100.123 12.6848 100.832 13.9085 101.305 15.3268C101.805 16.7173 102.056 18.2468 102.056 19.9154V20.8749C102.056 22.5157 101.819 24.0591 101.347 25.5052C100.874 26.9235 100.179 28.1611 99.2608 29.2179C98.3709 30.2746 97.2724 31.1089 95.9653 31.7208C94.686 32.3048 93.2121 32.5968 91.5435 32.5968C89.8193 32.5968 88.2619 32.2492 86.8714 31.5539C85.5087 30.8308 84.4102 29.7463 83.5759 28.3001C82.7416 26.8262 82.2828 24.9629 82.1993 22.7103L84.0348 25.2132V40.1889H77.3604ZM89.6663 27.007C90.8065 27.007 91.7938 26.7289 92.6281 26.1727C93.4902 25.6165 94.1576 24.8378 94.6304 23.8366C95.1032 22.8355 95.3396 21.6814 95.3396 20.3743C95.3396 19.0672 95.1032 17.927 94.6304 16.9537C94.1576 15.9803 93.5041 15.2294 92.6698 14.7011C91.8355 14.1449 90.8344 13.8668 89.6663 13.8668C88.6652 13.8668 87.7196 14.1031 86.8297 14.5759C85.9398 15.0487 85.2167 15.73 84.6605 16.6199C84.1321 17.4821 83.868 18.5388 83.868 19.7903V21.3337C83.868 22.5296 84.146 23.5585 84.7022 24.4206C85.2863 25.2549 86.0232 25.8946 86.9131 26.3395C87.8031 26.7845 88.7208 27.007 89.6663 27.007Z" fill="#FBFBFB"/>
</svg>
