<svg width="23" height="34" viewBox="0 0 23 34" fill="none" xmlns="http://www.w3.org/2000/svg">
<path fill-rule="evenodd" clip-rule="evenodd" d="M0.516785 0V33.9282H7.19115L7.1912 20.7196C7.19616 19.3971 7.57158 18.3353 8.31744 17.5342C9.07875 16.7457 10.066 16.3427 11.2792 16.3251C12.4924 16.3427 13.4797 16.7457 14.241 17.5342C14.9869 18.3353 15.3623 19.3971 15.3672 20.7196V33.9282H22.0416L22.0417 3.47625H15.3673V10.4235C15.006 10.3806 14.6306 10.3592 14.2409 10.3592H13.9489C12.1904 10.3592 10.368 10.3592 8.6095 10.3592H8.3175C7.92788 10.3592 7.55243 10.3806 7.19115 10.4235V0H0.516785Z" fill="#FBFBFB"/>
</svg>
